<svg width="96" height="72" viewBox="0 0 96 72" fill="none" xmlns="http://www.w3.org/2000/svg">
<g clip-path="url(#clip0_5907_5461)">
<path d="M24.7708 19.5041C24.4231 19.5041 24.2105 19.7151 24.2105 20.0986V23.1096H19.5539V20.0986C19.5539 19.7151 19.3414 19.5041 18.9936 19.5041C18.6458 19.5041 18.4332 19.7151 18.4332 20.0986V27.3671C18.4332 27.7507 18.6458 27.9616 18.9936 27.9616C19.3414 27.9616 19.5539 27.7507 19.5539 27.3671V24.1452H24.2105V27.3671C24.2105 27.7507 24.4231 27.9616 24.7708 27.9616C25.1186 27.9616 25.3312 27.7507 25.3312 27.3671V20.0986C25.3119 19.7151 25.1186 19.5041 24.7708 19.5041ZM30.5095 23.6274L33.7363 20.4055C33.8908 20.2521 33.9488 20.137 33.9488 19.9644C33.9488 19.7151 33.7749 19.5041 33.4658 19.5041C33.3112 19.5041 33.1759 19.5616 33.0407 19.6959L29.8719 22.8411C29.698 23.0137 29.5241 23.1096 29.2729 23.1096H28.6159V20.0986C28.6159 19.7151 28.4034 19.5041 28.0556 19.5041C27.7078 19.5041 27.4953 19.7151 27.4953 20.0986V27.3671C27.4953 27.7507 27.7078 27.9616 28.0556 27.9616C28.4034 27.9616 28.6159 27.7507 28.6159 27.3671V24.1452H29.1956C29.4468 24.1452 29.6207 24.2411 29.7946 24.4137L33.1566 27.7507C33.3112 27.9041 33.4271 27.9425 33.601 27.9425C33.9102 27.9425 34.1034 27.7123 34.1034 27.4438C34.1034 27.2712 34.0261 27.137 33.8715 26.9644L30.5095 23.6274ZM37.4847 9.49315C36.9824 9.76164 36.2868 9.93425 35.6298 9.93425C34.5478 9.93425 33.8715 9.47397 33.8715 8.64931C33.8715 7.92055 34.4512 7.34521 35.6298 7.34521C36.2481 7.34521 36.8085 7.4411 37.4847 7.63288V9.49315ZM35.7844 2.74247C34.8376 2.74247 33.9875 2.9726 33.4464 3.20274C32.9827 3.39452 32.7895 3.64383 32.7895 4.00822C32.7895 4.43014 33.118 4.73699 33.5044 4.73699C33.6976 4.73699 33.9102 4.66027 34.1227 4.58356C34.4705 4.44931 35.0695 4.29589 35.6492 4.29589C36.9437 4.29589 37.4847 4.77534 37.4847 5.7726V6.44383C36.7312 6.25205 36.1322 6.15616 35.4173 6.15616C33.2919 6.15616 32.2485 7.36438 32.2485 8.68767C32.2485 10.2219 33.4078 11.3726 35.4753 11.3726C37.079 11.3726 38.2963 10.8356 38.7986 10.5096C39.0305 10.3562 39.1078 10.2027 39.1078 9.87671V5.79178C39.1271 3.70137 37.9098 2.74247 35.7844 2.74247ZM56.1692 8.16986C55.7827 8.16986 55.5702 8.4 55.4349 8.64931C55.1451 9.28219 54.5268 9.72329 53.6766 9.72329C52.4786 9.72329 51.7637 9.0137 51.6671 7.93973C51.6091 7.36438 51.6091 6.71233 51.6671 6.15616C51.7637 5.10137 52.4786 4.3726 53.6766 4.3726C54.5268 4.3726 55.1451 4.8137 55.4349 5.44657C55.5895 5.69589 55.802 5.92603 56.1692 5.92603C56.6522 5.92603 57 5.61918 57 5.1589C57 4.90959 56.9034 4.66027 56.7488 4.39178C56.2464 3.49041 55.1837 2.74247 53.638 2.74247C51.5512 2.74247 50.16 4.04658 49.9861 5.90685C49.9281 6.52055 49.9281 7.55616 49.9861 8.16986C50.16 10.0301 51.5512 11.3342 53.638 11.3342C55.1837 11.3342 56.2464 10.6055 56.7488 9.68493C56.9034 9.41644 56.9807 9.16712 56.9807 8.91781C56.9807 8.47671 56.6522 8.15068 56.1692 8.16986ZM18.2207 9.83836L15.3031 6.94247L18.0661 4.2C18.2786 3.98904 18.3946 3.77808 18.3946 3.52877C18.3946 3.12603 18.1047 2.81918 17.6797 2.81918C17.4285 2.81918 17.2546 2.91507 17.0227 3.1452L14.221 5.92603C14.0664 6.07945 13.9119 6.15616 13.68 6.15616H13.1003V3.68219C13.1003 3.12603 12.7719 2.8 12.2502 2.8C11.7285 2.8 11.4 3.12603 11.4 3.68219V10.3562C11.4 10.9123 11.7285 11.2384 12.2502 11.2384C12.7719 11.2384 13.1003 10.9123 13.1003 10.3562V7.69041H13.5834C13.7959 7.69041 13.9698 7.7863 14.1244 7.92055L17.1193 10.8932C17.3705 11.1425 17.5637 11.2384 17.8149 11.2384C18.2593 11.2384 18.5685 10.9315 18.5685 10.4904C18.5492 10.2795 18.4332 10.0493 18.2207 9.83836ZM46.6627 7.93973C46.5661 8.99452 45.8898 9.72329 44.6725 9.72329C44.0349 9.72329 43.2427 9.53151 42.8563 9.26301V4.83288C43.2427 4.56438 44.0349 4.35342 44.6725 4.35342C45.8898 4.35342 46.5661 5.08219 46.6627 6.13699C46.7014 6.69315 46.7207 7.36438 46.6627 7.93973ZM44.7305 2.74247C43.262 2.74247 42.0641 3.26027 41.6003 3.54795C41.2139 3.77808 41.1753 3.95069 41.1753 4.60274V13.1562C41.1753 13.7123 41.5037 14.0384 42.0254 14.0384C42.5471 14.0384 42.8756 13.7123 42.8756 13.1562V10.9315C43.378 11.1808 44.1508 11.3534 44.8851 11.3534C46.8366 11.3534 48.1698 10.0685 48.3631 8.20822C48.421 7.57534 48.421 6.53973 48.3631 5.90685C48.1698 4.0274 46.8173 2.74247 44.7305 2.74247ZM15.2837 26.4274C14.6654 26.7534 13.8153 27.0027 13.0424 27.0027C11.6512 27.0027 10.859 26.4082 10.859 25.411C10.859 24.5096 11.5546 23.8192 13.0424 23.8192C13.7766 23.8192 14.3949 23.9342 15.2837 24.1836V26.4274ZM13.2936 19.4274C12.3275 19.4274 11.3807 19.6959 10.859 19.926C10.5112 20.0795 10.3566 20.2329 10.3566 20.5014C10.3566 20.789 10.5885 21 10.859 21C10.9942 21 11.1488 20.9425 11.3034 20.8658C11.6898 20.6932 12.4434 20.4822 13.1776 20.4822C14.6268 20.4822 15.2837 21.0575 15.2837 22.3616V23.1288C14.3756 22.8603 13.7186 22.7836 12.9458 22.7836C10.8397 22.7836 9.75763 23.9918 9.75763 25.3534C9.75763 26.9452 10.9749 28 12.8878 28C14.4722 28 15.6895 27.4438 16.1339 27.1178C16.3078 26.9836 16.3658 26.8877 16.3658 26.6384V22.3233C16.3851 20.3671 15.2258 19.4274 13.2936 19.4274ZM5.15899 26.7918H2.00949V22.3425H5.15899C6.82068 22.3425 7.49695 23.1479 7.49695 24.5288C7.47763 25.9671 6.80136 26.7918 5.15899 26.7918ZM5.29424 21.2877H1.99017V17.8548H7.49695C7.86407 17.8548 8.11525 17.6438 8.11525 17.2986C8.11525 16.9726 7.86407 16.7616 7.49695 16.7616H1.85492C1.21729 16.7616 0.869491 17.1068 0.869491 17.7397V26.8877C0.869491 27.5205 1.23661 27.8658 1.85492 27.8658H5.29424C7.40034 27.8658 8.63695 26.6384 8.63695 24.5096C8.63695 22.4575 7.40034 21.2877 5.29424 21.2877ZM24.6936 5.92603H27.4566C28.7705 5.92603 29.3502 6.59726 29.3502 7.72877C29.3502 8.89863 28.7705 9.58904 27.4566 9.58904H24.6936V5.92603ZM24.2685 11.2H27.6498C29.8332 11.2 31.1278 9.93425 31.1278 7.69041C31.1278 5.58082 29.8332 4.39178 27.6498 4.39178H24.6936V1.68767H29.64C30.181 1.68767 30.5288 1.36164 30.5288 0.863014C30.5288 0.383562 30.181 0.0575348 29.64 0.0575348H24.2685C23.4183 0.0575348 22.9546 0.517806 22.9546 1.36164V9.87671C22.9546 10.7397 23.4183 11.2 24.2685 11.2ZM3.28475 6.17534L4.83051 1.80274C4.88847 1.64931 4.94644 1.59178 5.06238 1.59178C5.17831 1.59178 5.23627 1.64931 5.27492 1.80274L6.82068 6.17534H3.28475ZM10.1054 10.4712C10.1054 10.3178 10.0861 10.1644 9.98949 9.93425L6.85932 1.47671C6.4922 0.441095 5.93187 0 5.06238 0C4.19288 0 3.63254 0.441095 3.26543 1.47671L0.115933 9.93425C0.0193232 10.2027 0 10.3562 0 10.4712C0 10.9123 0.347798 11.2767 0.850171 11.2767C1.25593 11.2767 1.54576 11.0849 1.71966 10.5863L2.74373 7.70959H7.38102L8.40508 10.5863C8.55966 11.0658 8.86882 11.2575 9.25526 11.2575C9.75763 11.2767 10.1054 10.9123 10.1054 10.4712Z" fill="white"/>
<path d="M95.442 54.5986C94.0788 51.1829 90.6807 49.3042 87.0137 49.9684L79.4878 51.2967C78.2399 51.5244 77.4143 52.701 77.6255 53.9344C77.8559 55.1679 79.0462 55.9839 80.2941 55.7752L87.8201 54.4468C89.6055 54.1242 90.7191 55.1869 91.1606 56.2875C91.6022 57.3882 91.5254 58.9063 89.9895 59.8741L78.931 66.9523C77.9135 67.6165 76.6464 67.6544 75.5904 67.0851C74.5153 66.5158 73.8817 65.4531 73.8817 64.2386V41.2772C73.8817 40.0247 72.8642 39 71.5779 39C70.3108 39 69.274 40.0247 69.274 41.2772V64.2007C69.274 67.1041 70.8099 69.6469 73.3826 71.0322C74.5729 71.6774 75.8592 72 77.1455 72C78.6238 72 80.1021 71.5825 81.4269 70.7286L92.4854 63.6504C95.6148 61.6579 96.8051 58.0144 95.442 54.5986ZM56.5645 49.9494L49.0385 51.2777C47.7906 51.5055 46.9651 52.682 47.1763 53.9155C47.4066 55.1489 48.597 55.9649 49.8449 55.7562L57.3708 54.4278C59.1563 54.1052 60.2698 55.1679 60.7114 56.2685C61.153 57.3692 61.0762 58.8873 59.5403 59.8551L48.4818 66.9333C47.4642 67.5975 46.1971 67.6354 45.1412 67.0661C44.0661 66.4968 43.4325 65.4342 43.4325 64.2197V46.7993C43.4325 43.8959 41.8966 41.3531 39.324 39.9678C36.7513 38.5825 33.7371 38.6964 31.2797 40.2714L3.49906 58.0713C0.369656 60.0828 -0.80147 63.7263 0.561643 67.142C1.92476 70.5578 5.32294 72.4365 8.9899 71.7723L33.2572 67.4646C34.5051 67.2369 35.3306 66.0604 35.1194 64.8269C34.889 63.5934 33.6987 62.7775 32.4508 62.9862L8.18356 67.2938C6.39807 67.6164 5.28454 66.5538 4.84297 65.4531C4.4014 64.3525 4.47819 62.8344 6.0141 61.8666L33.7947 44.0667C34.8122 43.4025 36.0794 43.3646 37.1353 43.9339C38.2104 44.5032 38.844 45.5658 38.844 46.7803V64.2007C38.844 67.1041 40.3799 69.6469 42.9525 71.0322C44.1429 71.6774 45.4292 72 46.7155 72C48.1938 72 49.6721 71.5825 50.9776 70.7286L62.0361 63.6504C65.1655 61.6389 66.3366 57.9954 64.9735 54.5796C63.6296 51.1639 60.2314 49.3042 56.5645 49.9494Z" fill="#009C32"/>
</g>
<defs>
<clipPath id="clip0_5907_5461">
<rect width="96" height="72" fill="white"/>
</clipPath>
</defs>
</svg>
