<svg width="196" height="34" viewBox="0 0 196 34" fill="none" xmlns="http://www.w3.org/2000/svg">
    <path
        d="M16.7254 33.9899C25.9626 33.9899 33.4509 26.5017 33.4509 17.2645C33.4509 8.0273 25.9626 0.539062 16.7254 0.539062C7.48823 0.539062 0 8.0273 0 17.2645C0 26.5017 7.48823 33.9899 16.7254 33.9899Z"
        fill="#ED1A3B" />
    <path
        d="M65.318 1.75418H56.7424V13.3708H45.6732V1.75418H37.0977V32.7723H45.6732V20.9732H65.318V1.75418Z"
        fill="white" />
    <path d="M87.0934 9.29628H78.457V32.8335H87.0934V9.29628Z" fill="white" />
    <path
        d="M128.695 1.75418H120.666L108.624 19.2095V1.75418H100.109V32.7723H108.138L120.18 15.317L128.695 1.75418Z"
        fill="white" />
    <path
        d="M163.667 1.75418H153.511L142.806 14.3439V1.75418H134.17V32.7723H142.806V24.7441L145.969 21.2773L153.754 32.7723H164.093L151.929 15.0737L163.667 1.75418Z"
        fill="white" />
    <path
        d="M178.326 0.539062C169.081 0.539062 161.601 8.0199 161.601 17.2645C161.601 26.5091 169.081 33.9899 178.326 33.9899C187.571 33.9899 195.051 26.5091 195.051 17.2645C195.051 8.0199 187.571 0.539062 178.326 0.539062ZM178.326 25.7185C173.643 25.7185 169.872 21.9476 169.872 17.2645C169.872 12.5814 173.643 8.81055 178.326 8.81055C183.009 8.81055 186.78 12.5814 186.78 17.2645C186.78 21.9476 183.009 25.7185 178.326 25.7185Z"
        fill="white" />
    <path
        d="M178.322 25.7173C182.991 25.7173 186.776 21.9323 186.776 17.2633C186.776 12.5943 182.991 8.80937 178.322 8.80937C173.653 8.80937 169.868 12.5943 169.868 17.2633C169.868 21.9323 173.653 25.7173 178.322 25.7173Z"
        fill="#00B9F1" />
    <path d="M96.3391 1.75418H69.0918V9.29583H96.3391V1.75418Z" fill="#FAA21B" />
    <path d="M65.3815 20.9743H56.7451V32.7733H65.3815V20.9743Z" fill="#00A5E1" />
    <path d="M128.694 32.7723V1.75418L120.18 15.317V32.7723H128.694Z" fill="#ED1A3B" />
</svg>