<svg width="378" height="466" viewBox="0 0 378 466" fill="none" xmlns="http://www.w3.org/2000/svg">
<path d="M289.721 164.962L288.222 164.912L289.721 164.962ZM237.899 321.656L236.493 321.131L237.899 321.656ZM310.895 454.88L297.187 465.468L294.871 448.303L310.895 454.88ZM291.22 165.012C290.221 194.806 279.579 215.224 264.138 228.097C248.734 240.941 228.721 246.137 209.191 245.847C189.668 245.557 170.474 239.787 156.602 230.509C142.756 221.249 133.928 208.264 135.968 193.578L138.939 193.991C137.123 207.066 144.906 219.077 158.27 228.015C171.607 236.935 190.222 242.565 209.236 242.847C228.242 243.129 247.496 238.067 262.217 225.793C276.903 213.549 287.246 193.988 288.222 164.912L291.22 165.012ZM135.968 193.578C136.98 186.289 140.198 180.717 145.016 176.902C149.81 173.105 156.075 171.136 163.063 170.808C177.016 170.154 194.155 176.018 209.426 187.612C240.076 210.884 263.473 257.428 239.304 322.18L236.493 321.131C260.192 257.638 237.223 212.485 207.612 190.002C192.752 178.719 176.287 173.191 163.204 173.805C156.674 174.111 151.063 175.94 146.879 179.254C142.718 182.549 139.855 187.399 138.939 193.991L135.968 193.578ZM239.304 322.18C225.101 360.231 224.289 394.631 234.658 418.881C239.835 430.987 247.793 440.563 258.278 446.861C268.764 453.16 281.868 456.235 297.421 455.187L297.623 458.181C281.553 459.263 267.821 456.093 256.733 449.433C245.645 442.772 237.294 432.676 231.9 420.06C221.127 394.865 222.127 359.621 236.493 321.131L239.304 322.18ZM68.8778 38.4404C82.0184 71.1679 100.397 89.0653 121.183 96.039C142.005 103.025 165.583 99.1645 189.331 87.6503L190.64 90.3497C166.476 102.066 142.054 106.205 120.229 98.8832C98.3681 91.5489 79.4533 72.8309 66.0939 39.5582L68.8778 38.4404ZM189.331 87.6503C213.821 75.7767 239.86 79.6449 259.482 94.2466C279.097 108.843 292.257 134.121 291.22 165.012L288.222 164.912C289.228 134.951 276.476 110.632 257.691 96.6534C238.913 82.6797 214.064 78.993 190.64 90.3497L189.331 87.6503Z" fill="black"/>
<path d="M57.5858 28.32C56.1778 28.32 54.9512 28.0427 53.9058 27.488C52.8605 26.912 52.0498 26.112 51.4738 25.088C50.9192 24.0427 50.6418 22.8267 50.6418 21.44V11.2C50.6418 9.792 50.9192 8.576 51.4738 7.552C52.0498 6.528 52.8605 5.73867 53.9058 5.184C54.9512 4.608 56.1778 4.32 57.5858 4.32C59.0152 4.32 60.2418 4.608 61.2658 5.184C62.3112 5.73867 63.1112 6.528 63.6658 7.552C64.2418 8.576 64.5298 9.792 64.5298 11.2V21.44C64.5298 22.848 64.2418 24.064 63.6658 25.088C63.1112 26.112 62.3112 26.912 61.2658 27.488C60.2205 28.0427 58.9938 28.32 57.5858 28.32ZM57.5858 26.08C58.9298 26.08 59.9965 25.6533 60.7858 24.8C61.5965 23.9467 62.0018 22.8267 62.0018 21.44V11.2C62.0018 9.81333 61.5965 8.69333 60.7858 7.84C59.9965 6.98667 58.9298 6.56 57.5858 6.56C56.2418 6.56 55.1645 6.98667 54.3538 7.84C53.5645 8.69333 53.1698 9.81333 53.1698 11.2V21.44C53.1698 22.8267 53.5645 23.9467 54.3538 24.8C55.1645 25.6533 56.2418 26.08 57.5858 26.08ZM57.5858 18.112C57.0312 18.112 56.5832 17.9413 56.2418 17.6C55.9218 17.2373 55.7618 16.7787 55.7618 16.224C55.7618 15.6693 55.9218 15.232 56.2418 14.912C56.5832 14.5707 57.0312 14.4 57.5858 14.4C58.1405 14.4 58.5778 14.5707 58.8978 14.912C59.2392 15.232 59.4098 15.6693 59.4098 16.224C59.4098 16.7787 59.2392 17.2373 58.8978 17.6C58.5778 17.9413 58.1405 18.112 57.5858 18.112Z" fill="black"/>
<path d="M324.962 462V459.696H331.362V440.784L325.026 445.488V442.672L330.466 438.64H333.89V459.696H339.17V462H324.962Z" fill="black"/>
</svg>
