<svg width="133" height="48" viewBox="0 0 133 48" fill="none" xmlns="http://www.w3.org/2000/svg">
<path d="M55.3364 8.17647C56.4808 8.17647 57.6251 8.15052 58.7678 8.18341C59.8133 8.21282 60.8694 8.2647 61.8473 8.6819C63.2084 9.26178 64.1534 10.2259 64.4343 11.7265C64.7534 13.4349 63.9332 15.1174 62.3934 15.9568C61.8299 16.2631 61.2335 16.4848 60.6092 16.6266C60.4671 16.6595 60.448 16.6976 60.5382 16.8206C61.7398 18.4718 62.931 20.13 64.136 21.7778C64.573 22.3767 65.0499 22.9462 65.6498 23.3944C66.2966 23.8791 67.0508 24.0816 67.8363 24.1768C68.0981 24.208 68.0582 24.362 68.0617 24.5264C68.0669 24.7324 67.9212 24.7099 67.7895 24.7099C66.4648 24.7099 65.1417 24.7064 63.8171 24.7134C63.6436 24.7134 63.5378 24.6528 63.439 24.5178C61.6635 22.0686 59.881 19.6246 58.1072 17.1736C58.0031 17.0299 57.8938 16.978 57.7256 16.997C57.3043 17.0421 56.883 17.0455 56.4599 17.0022C56.3455 16.9902 56.2882 17.0316 56.29 17.1494C56.29 17.1771 56.29 17.2048 56.29 17.2324C56.2917 18.9062 56.2952 20.58 56.2969 22.2555C56.2969 22.5325 56.3403 22.8059 56.3802 23.0794C56.4651 23.6489 56.8137 23.9673 57.346 24.1231C57.6997 24.2269 58.0604 24.1889 58.4193 24.1993C58.499 24.201 58.6048 24.1716 58.6412 24.2668C58.6881 24.3896 58.6898 24.5281 58.6377 24.6511C58.603 24.7341 58.5059 24.7099 58.4314 24.7116C57.932 24.7116 57.4326 24.7116 56.9333 24.7116C55.2201 24.7116 53.5087 24.7116 51.7956 24.7116C51.52 24.7116 51.4245 24.5697 51.5095 24.3014C51.5442 24.1923 51.6274 24.201 51.7107 24.1993C51.9812 24.1941 52.2552 24.2166 52.5204 24.1803C53.3891 24.0591 53.807 23.5745 53.8608 22.6623C53.8885 22.1932 53.904 21.7241 53.904 21.2533C53.9007 17.8435 53.904 14.4319 53.8989 11.022C53.8989 10.6153 53.8573 10.2102 53.8001 9.8052C53.6943 9.03842 53.0822 8.77013 52.5569 8.69579C52.3019 8.65943 52.0471 8.65075 51.7905 8.65422C51.52 8.65943 51.513 8.63859 51.4991 8.40666C51.487 8.18515 51.6049 8.16605 51.7818 8.16779C52.9677 8.17299 54.1538 8.17126 55.3381 8.17126V8.1782L55.3364 8.17647ZM56.2882 12.7616C56.2882 13.8261 56.2882 14.8923 56.2882 15.9568C56.2882 16.0867 56.2969 16.1818 56.4721 16.1853C57.3269 16.1991 58.1748 16.168 59.0053 15.9343C60.7531 15.4445 61.9132 14.0079 61.6513 12.0312C61.4363 10.399 60.1324 9.20111 58.4834 9.14923C57.8141 9.1285 57.1569 9.21847 56.4998 9.32234C56.3403 9.34828 56.2847 9.42447 56.2865 9.58715C56.2917 10.6447 56.29 11.7041 56.29 12.7616H56.2882Z" fill="#8D0010"/>
<path d="M86.7993 16.1593C86.8115 18.3922 86.2965 20.2598 85.036 21.8834C83.8049 23.4689 82.2426 24.5767 80.2382 24.9349C77.443 25.4352 74.9687 24.7792 72.9348 22.7367C71.6881 21.4853 70.9547 19.9621 70.6772 18.2278C70.4362 16.7254 70.4223 15.2143 70.8801 13.7516C71.884 10.5391 74.0445 8.54692 77.3685 7.90821C78.9273 7.60877 80.4861 7.74378 81.9391 8.44132C84.1568 9.50406 85.6584 11.2124 86.4127 13.5561C86.704 14.4648 86.8237 15.403 86.8011 16.1593H86.7993ZM83.9435 16.5107C83.954 16.0469 83.9228 15.4463 83.8621 14.8474C83.758 13.8174 83.5569 12.8101 83.1512 11.8529C82.7663 10.9476 82.2478 10.1342 81.4259 9.56125C80.2191 8.72176 78.8736 8.56254 77.4708 8.8533C75.9189 9.17694 74.9444 10.219 74.2786 11.5881C73.696 12.7841 73.4723 14.0719 73.4099 15.384C73.3423 16.7808 73.3943 18.1758 73.7272 19.5467C73.9977 20.6562 74.4381 21.6808 75.156 22.581C76.5708 24.3534 78.9949 24.5144 80.6976 23.7233C82.1073 23.0691 82.9743 21.9319 83.4442 20.4761C83.8464 19.2317 83.954 17.9474 83.9453 16.5107H83.9435Z" fill="#8D0010"/>
<path d="M2.17933 24.5162C2.18454 19.7978 3.1278 15.7613 5.12356 11.9897C7.08985 8.27004 9.82428 5.24798 13.4587 3.07572C15.7353 1.71518 18.1923 0.856695 20.8244 0.505273C21.6757 0.391095 22.5358 0.332269 23.3941 0.34432C27.0961 0.396303 30.5067 1.42963 33.6296 3.41315C34.9577 4.25612 36.175 5.23756 37.2812 6.35055C39.7036 8.78936 41.4895 11.6367 42.7015 14.8457C43.4489 16.8224 43.9343 18.8614 44.1823 20.9575C44.3418 22.3059 44.4008 23.6593 44.3488 25.0147C44.2118 28.5162 43.4436 31.8725 41.9559 35.0538C40.8306 37.4615 39.362 39.639 37.5014 41.5464C34.7445 44.3746 31.4829 46.3391 27.6214 47.2704C26.373 47.5716 25.1055 47.7308 23.819 47.7655C19.3783 47.8848 15.392 46.5677 11.8235 43.9696C8.37644 41.4615 5.91251 38.1712 4.23579 34.2766C3.27518 32.0456 2.67004 29.7157 2.3718 27.3081C2.23829 26.2314 2.16026 25.148 2.18107 24.5179L2.17933 24.5162ZM43.8025 24.0661C43.8164 23.0276 43.7453 21.9943 43.624 20.9627C43.5806 20.5923 43.5234 20.2236 43.4644 19.8549C42.9772 16.8466 41.9906 14.0132 40.4456 11.3839C38.1292 7.44097 34.9716 4.3946 30.7651 2.49932C28.5405 1.49714 26.1979 0.98129 23.7617 0.898261C22.8116 0.865376 21.8648 0.931145 20.9215 1.05053C19.0229 1.28941 17.2092 1.82251 15.4752 2.63086C12.8553 3.85108 10.6149 5.57509 8.70935 7.73867C6.56447 10.1723 5.01606 12.9469 4.00518 16.021C3.05844 18.8977 2.64057 21.8523 2.74286 24.8814C2.77061 25.7105 2.82609 26.5378 2.93187 27.36C3.18155 29.3142 3.63932 31.2199 4.34156 33.0633C6.02868 37.484 8.70588 41.1569 12.6263 43.8675C15.6642 45.9671 19.0402 47.0973 22.7387 47.2289C23.8068 47.267 24.8697 47.1891 25.9274 47.0333C28.6376 46.6352 31.1361 45.6762 33.4267 44.1877C36.9084 41.9254 39.4816 38.8652 41.2901 35.1525C42.9945 31.6543 43.7957 27.9485 43.8008 24.0661H43.8025Z" fill="#8D0010"/>
<path d="M101.136 10.6569C101.136 11.5293 101.136 12.3999 101.136 13.2723C101.136 13.3986 101.168 13.5423 100.958 13.5509C100.656 13.563 100.621 13.5458 100.583 13.3017C100.432 12.3514 100.209 11.4254 99.6382 10.6275C98.9151 9.61489 97.9007 9.06452 96.6888 8.86537C95.9917 8.75119 95.2999 8.79276 94.66 9.12161C93.8832 9.52144 93.3301 10.1151 93.1862 11.01C93.0752 11.7024 93.311 12.2891 93.7879 12.7876C94.3236 13.3501 94.9757 13.7604 95.631 14.1637C96.7807 14.8751 98.0048 15.455 99.1614 16.1542C99.7197 16.4918 100.269 16.8361 100.764 17.2654C102.538 18.8076 102.719 21.5459 101.166 23.3062C100.24 24.3568 99.0781 24.916 97.6927 25.0562C96.5171 25.1756 95.3883 25.0007 94.2803 24.6165C93.8156 24.4556 93.3457 24.3084 92.8655 24.2028C92.7423 24.1751 92.6192 24.1682 92.4944 24.1699C92.236 24.1717 92.0609 24.2962 91.9638 24.5317C91.9274 24.6217 91.8978 24.7134 91.8771 24.8086C91.8129 25.0839 91.7002 25.1548 91.4263 25.0891C91.3638 25.0734 91.3257 25.0458 91.3188 24.9817C91.3135 24.9263 91.3118 24.8709 91.3118 24.8156C91.3118 23.1002 91.3118 21.3849 91.3118 19.6679C91.3118 19.5484 91.2616 19.3927 91.4783 19.3805C91.7904 19.3615 91.8233 19.3805 91.8736 19.6333C92.021 20.3741 92.1944 21.108 92.5359 21.7882C92.9937 22.6987 93.7514 23.2854 94.6705 23.6732C95.8079 24.1527 96.9801 24.2478 98.1609 23.8549C99.2637 23.4879 100.023 22.4563 99.9954 21.3884C99.9762 20.6545 99.6538 20.0452 99.1544 19.5208C98.6498 18.9911 98.0135 18.6467 97.3928 18.2832C96.1252 17.5423 94.8195 16.8655 93.5989 16.0452C92.8498 15.5415 92.1753 14.9668 91.7071 14.1793C90.8454 12.734 91.0153 10.8023 92.1094 9.52491C93.0821 8.38946 94.3184 7.83899 95.8079 7.79232C96.8865 7.75943 97.8939 8.01557 98.8701 8.43787C99.0798 8.52794 99.2897 8.61792 99.5116 8.67848C100.02 8.82044 100.349 8.6508 100.521 8.15753C100.538 8.10554 100.557 8.05193 100.571 7.99994C100.632 7.79058 100.854 7.69019 101.051 7.78537C101.166 7.84073 101.136 7.9498 101.138 8.04151C101.14 8.91388 101.138 9.78452 101.138 10.6569H101.136Z" fill="#8D0010"/>
<path d="M116.912 10.657C116.912 11.5363 116.912 12.4138 116.912 13.2931C116.912 13.4212 116.926 13.5544 116.734 13.5476C116.577 13.5406 116.415 13.596 116.377 13.3312C116.262 12.5419 116.085 11.7647 115.697 11.0568C114.992 9.77244 113.866 9.09227 112.447 8.86033C111.645 8.73053 110.863 8.81356 110.169 9.27569C109.383 9.79848 108.896 10.503 108.966 11.493C109.013 12.1698 109.39 12.6631 109.887 13.0819C110.755 13.8141 111.74 14.3697 112.73 14.9115C113.8 15.4982 114.88 16.0625 115.891 16.748C116.832 17.3849 117.547 18.2088 117.847 19.3218C118.265 20.8692 117.922 22.2504 116.834 23.4344C115.926 24.4244 114.781 24.9212 113.45 25.058C112.184 25.1878 110.982 24.9402 109.802 24.5282C109.429 24.3984 109.049 24.2894 108.662 24.2029C108.065 24.0696 107.813 24.2271 107.663 24.8174C107.634 24.9316 107.66 25.0874 107.456 25.0925C107.131 25.1012 107.112 25.0942 107.112 24.7723C107.112 23.0709 107.112 21.3694 107.112 19.6663C107.112 19.4032 107.298 19.2872 107.548 19.3893C107.628 19.4222 107.629 19.4914 107.643 19.5589C107.745 20.0522 107.865 20.542 108.014 21.0267C108.472 22.5136 109.515 23.3963 110.957 23.8533C111.853 24.1388 112.776 24.1873 113.684 23.9346C114.758 23.6369 115.514 22.974 115.736 21.8471C115.918 20.9228 115.554 20.1526 114.92 19.4932C114.459 19.0119 113.88 18.6918 113.315 18.356C112.092 17.6341 110.827 16.9834 109.637 16.2062C108.956 15.7613 108.305 15.2819 107.803 14.6293C106.65 13.1321 106.657 11.0862 107.833 9.60975C108.777 8.42588 110.026 7.85642 111.531 7.79065C112.637 7.74214 113.672 8.00348 114.674 8.43967C114.877 8.52801 115.085 8.60757 115.297 8.6716C115.808 8.82745 116.145 8.64913 116.315 8.1437C116.332 8.09182 116.345 8.0381 116.361 7.98449C116.422 7.77329 116.488 7.74388 116.753 7.76634C116.951 7.78371 116.912 7.92219 116.912 8.03984C116.914 8.91222 116.912 9.78285 116.912 10.6552V10.657Z" fill="#8D0010"/>
<path d="M125.378 24.7135C124.281 24.7135 123.188 24.7135 122.092 24.7135C121.807 24.7135 121.793 24.691 121.797 24.4037C121.798 24.2514 121.861 24.1977 122.01 24.1977C122.292 24.196 122.579 24.2236 122.86 24.1718C123.707 24.016 124.058 23.6179 124.128 22.7576C124.16 22.344 124.168 21.9303 124.168 21.5148C124.168 17.9457 124.168 14.3784 124.168 10.8093C124.168 10.4562 124.134 10.1065 124.086 9.75695C124.039 9.409 123.857 9.15633 123.559 8.98149C123.087 8.70452 122.569 8.63875 122.037 8.66132C121.852 8.66816 121.8 8.59892 121.795 8.42244C121.79 8.21298 121.877 8.16968 122.065 8.16968C124.276 8.17489 126.487 8.17315 128.698 8.17315C128.937 8.17315 129.054 8.37046 128.945 8.58687C128.9 8.67858 128.818 8.65785 128.747 8.65785C128.406 8.65438 128.067 8.65785 127.734 8.73741C127.16 8.87415 126.766 9.19095 126.666 9.80709C126.604 10.1897 126.569 10.5756 126.569 10.9616C126.564 14.6346 126.564 18.3057 126.569 21.9788C126.569 22.3578 126.594 22.7386 126.651 23.1142C126.699 23.4431 126.861 23.694 127.146 23.8671C127.49 24.0783 127.859 24.2029 128.266 24.2012C128.398 24.2012 128.53 24.2012 128.662 24.2012C128.95 24.2012 129.034 24.3189 128.96 24.6027C128.934 24.6997 128.87 24.7135 128.788 24.7153C128.601 24.7153 128.413 24.7153 128.226 24.7153C127.276 24.7153 126.327 24.7153 125.378 24.7153V24.7135Z" fill="#8D0010"/>
<path d="M56.7778 35.251C56.0912 35.251 55.4045 35.2545 54.7196 35.2475C54.5393 35.2458 54.4595 35.2891 54.4612 35.4899C54.4717 36.5613 54.4682 37.6345 54.4699 38.7059C54.4699 38.7889 54.4838 38.8703 54.4872 38.9533C54.5046 39.4795 54.8618 39.6855 55.3751 39.7599C55.4912 39.7773 55.6109 39.7704 55.7287 39.7704C55.8467 39.7704 55.9281 39.7998 55.9264 39.9452C55.9264 40.094 55.838 40.1131 55.7219 40.1131C54.9311 40.1131 54.1405 40.1131 53.3515 40.1131C52.8037 40.1131 52.2557 40.1131 51.7077 40.1131C51.5899 40.1131 51.5031 40.0905 51.5031 39.9452C51.5031 39.8032 51.5864 39.7704 51.706 39.7704C51.7962 39.7704 51.8864 39.7704 51.9765 39.7669C52.6163 39.7444 52.9093 39.4605 52.9458 38.8235C52.9545 38.6851 52.9562 38.5466 52.9562 38.4082C52.9562 36.0697 52.944 33.733 52.9562 31.3946C52.9597 30.5966 52.6372 30.2868 51.8153 30.2747C51.7668 30.2747 51.7182 30.273 51.6696 30.2747C51.5413 30.2781 51.4997 30.209 51.5031 30.0912C51.5049 29.9804 51.5552 29.9268 51.6679 29.9268C51.8621 29.9268 52.0563 29.9268 52.2505 29.9268C53.3879 29.9268 54.5237 29.9268 55.6611 29.9268C55.7461 29.9268 55.8484 29.8956 55.9056 29.9943C55.9802 30.1206 55.9021 30.2608 55.7513 30.2713C55.6611 30.2765 55.571 30.2713 55.4808 30.2747C54.8288 30.2868 54.489 30.5845 54.4769 31.2284C54.4543 32.2998 54.4682 33.373 54.463 34.4444C54.463 34.5829 54.5289 34.6227 54.6554 34.6227C56.0773 34.6227 57.4974 34.621 58.9192 34.6227C59.0614 34.6227 59.1169 34.5655 59.1151 34.4254C59.1083 33.3332 59.1151 32.2393 59.0996 31.1471C59.0926 30.6295 58.751 30.3162 58.2031 30.2781C58.0713 30.2695 57.9395 30.273 57.8077 30.2713C57.6864 30.2713 57.6587 30.1916 57.6604 30.0912C57.6604 29.996 57.6951 29.9303 57.8042 29.9285C57.8182 29.9285 57.8321 29.9285 57.8459 29.9285C59.1914 29.9285 60.5353 29.9285 61.8808 29.9285C61.9744 29.9285 62.0645 29.9355 62.075 30.0618C62.0854 30.1916 62.0542 30.2816 61.8998 30.2765C61.8027 30.273 61.7056 30.2765 61.6086 30.2765C60.9757 30.2937 60.6566 30.6088 60.6289 31.2388C60.6254 31.3288 60.6236 31.4188 60.6236 31.5088C60.6236 33.9096 60.6236 36.3085 60.6289 38.7093C60.6289 38.8599 60.6497 39.0139 60.6792 39.1611C60.7416 39.4795 61.0693 39.7184 61.4923 39.7582C61.6225 39.7704 61.756 39.7686 61.8878 39.7704C61.9969 39.7704 62.0767 39.7963 62.0785 39.9313C62.0802 40.0698 62.0143 40.1131 61.8878 40.1131C61.6033 40.1096 61.319 40.1131 61.0346 40.1131C59.9873 40.1131 58.9418 40.1131 57.8945 40.1131C57.78 40.1131 57.6621 40.1217 57.6621 39.9538C57.6621 39.8482 57.6986 39.779 57.8147 39.7756C57.9257 39.7721 58.0366 39.7721 58.1476 39.7669C58.7649 39.7427 59.0822 39.4657 59.0961 38.8495C59.1221 37.7088 59.1083 36.5665 59.1151 35.4259C59.1151 35.2493 59.0042 35.2493 58.8793 35.2493C58.1788 35.2493 57.4783 35.2493 56.7795 35.2493L56.7778 35.251Z" fill="#8D0010"/>
<path d="M113.792 40.1148C113.139 40.1148 112.487 40.1148 111.836 40.1148C111.753 40.1148 111.638 40.146 111.612 40.0213C111.586 39.9002 111.586 39.7773 111.766 39.7756C111.884 39.7756 112.003 39.7739 112.12 39.7669C112.666 39.741 112.969 39.4484 113.016 38.9032C113.026 38.8063 113.027 38.7093 113.027 38.6124C113.027 36.184 113.026 33.7556 113.021 31.3271C113.021 31.2232 113.003 31.1211 112.994 31.0172C112.942 30.4686 112.525 30.3077 112.141 30.2799C112.016 30.2713 111.891 30.273 111.766 30.2748C111.638 30.2748 111.601 30.209 111.601 30.0913C111.601 29.9753 111.657 29.9286 111.766 29.9286C112.058 29.9286 112.349 29.9268 112.64 29.9286C113.646 29.9286 114.651 29.9234 115.656 29.939C116.188 29.9476 116.722 29.9909 117.239 30.138C118.18 30.4063 118.913 30.948 119.233 31.8896C119.744 33.4024 119.003 35.1627 117.082 35.5107C116.34 35.6457 115.607 35.5782 114.873 35.4466C114.813 35.4362 114.748 35.4294 114.69 35.412C114.573 35.3774 114.539 35.431 114.541 35.5366C114.563 36.6842 114.487 37.8336 114.583 38.9793C114.624 39.4813 114.92 39.741 115.43 39.7652C115.548 39.7704 115.666 39.7721 115.784 39.7721C115.907 39.7721 116.003 39.7929 115.997 39.9521C115.994 40.1027 115.9 40.1131 115.787 40.1131C115.357 40.1131 114.927 40.1131 114.497 40.1131C114.261 40.1131 114.025 40.1131 113.79 40.1131L113.792 40.1148ZM114.543 32.8192C114.543 33.4405 114.549 34.0619 114.539 34.6833C114.536 34.853 114.603 34.9187 114.758 34.9377C114.95 34.9619 115.14 34.9914 115.333 35.0191C116.375 35.1662 117.263 34.5899 117.535 33.5945C117.63 33.2484 117.636 32.8935 117.593 32.5457C117.469 31.5902 116.975 30.8805 116.066 30.6659C115.662 30.5707 115.257 30.5932 114.851 30.6694C114.543 30.7282 114.543 30.73 114.543 31.0363C114.543 31.63 114.543 32.2237 114.543 32.8192Z" fill="#8D0010"/>
<path d="M109.884 31.5019C109.884 31.9934 109.888 32.4834 109.881 32.9749C109.881 33.084 109.948 33.2415 109.742 33.2604C109.546 33.2795 109.544 33.1393 109.52 33.006C109.452 32.6097 109.357 32.2202 109.184 31.855C108.684 30.8009 107.467 30.1847 106.319 30.4063C105.564 30.5516 104.982 31.2354 105.01 31.9519C105.022 32.2635 105.152 32.5266 105.36 32.7516C105.658 33.0753 106.02 33.3227 106.397 33.5426C107.205 34.0134 108.024 34.4651 108.833 34.9342C109.187 35.1385 109.529 35.3652 109.811 35.6664C111.063 37.0078 110.712 39.0226 109.075 39.9261C108.488 40.2498 107.855 40.3416 107.191 40.3346C106.612 40.3277 106.071 40.1702 105.529 40.0006C105.284 39.9244 105.04 39.8466 104.788 39.7928C104.453 39.7219 104.311 39.8205 104.223 40.1443C104.216 40.1702 104.211 40.1979 104.204 40.2256C104.178 40.3364 104.096 40.3571 103.997 40.3519C103.889 40.345 103.86 40.281 103.86 40.1857C103.86 39.1212 103.86 38.055 103.86 36.9906C103.86 36.8867 103.884 36.8192 104.009 36.8157C104.124 36.8122 104.193 36.8503 104.214 36.9681C104.268 37.2675 104.343 37.5618 104.436 37.8525C104.803 38.981 105.651 39.5073 106.766 39.6717C107.155 39.7288 107.553 39.7184 107.94 39.6007C109.215 39.2147 109.564 37.8421 108.627 36.9006C108.19 36.4609 107.632 36.2029 107.106 35.8967C106.43 35.5037 105.736 35.1385 105.097 34.6833C104.496 34.2558 104.002 33.7417 103.822 32.9991C103.479 31.5849 104.429 30.1224 105.891 29.8022C106.739 29.6152 107.555 29.7191 108.351 30.0479C108.518 30.1172 108.683 30.1916 108.855 30.2452C109.197 30.3526 109.374 30.2591 109.496 29.9216C109.508 29.8887 109.519 29.8558 109.529 29.8229C109.569 29.6966 109.671 29.7139 109.768 29.7191C109.879 29.726 109.876 29.8074 109.876 29.8852C109.876 30.4253 109.876 30.9636 109.876 31.5036L109.884 31.5019Z" fill="#8D0010"/>
<path d="M96.9811 34.6989C97.3556 34.6989 97.7301 34.6989 98.1046 34.6989C98.1965 34.6989 98.2919 34.6954 98.3006 34.8271C98.3093 34.9569 98.226 34.9983 98.1203 35.0053C97.6799 35.0312 97.3695 35.2581 97.1493 35.6267C97.0331 35.8223 96.9048 36.0127 96.7938 36.2117C96.4418 36.8487 96.0534 37.4615 95.6078 38.0379C95.5558 38.1054 95.4708 38.1694 95.5627 38.2698C95.9667 38.7128 96.3828 39.137 97.0019 39.2755C97.6192 39.4121 98.1237 39.156 98.3647 38.5778C98.3908 38.5155 98.3908 38.3979 98.5034 38.4463C98.6005 38.4878 98.7168 38.5449 98.6769 38.6904C98.4705 39.4434 97.9851 40.1599 97.0487 40.2914C96.4331 40.378 95.9026 40.1772 95.4067 39.8432C95.1535 39.6718 94.9211 39.4728 94.7148 39.2477C94.6247 39.1508 94.5657 39.1473 94.4617 39.2356C93.9744 39.6527 93.456 40.0214 92.8231 40.1893C92.244 40.3434 91.6596 40.3676 91.0788 40.2032C89.9326 39.8812 89.3829 38.7838 89.8043 37.6743C90.054 37.0149 90.5135 36.5285 91.0736 36.1218C91.377 35.9019 91.6908 35.6994 92.0221 35.5246C92.1607 35.4519 92.1902 35.3792 92.1243 35.2303C91.8971 34.7163 91.7169 34.1884 91.7203 33.6137C91.7272 32.5388 92.3809 31.7634 93.4508 31.5817C94.0265 31.4829 94.5778 31.5314 95.0425 31.9208C95.7292 32.4955 95.7656 33.5479 95.1414 34.2161C94.7512 34.6331 94.2743 34.9257 93.775 35.1836C93.5965 35.2753 93.5912 35.3532 93.6866 35.5125C94.1131 36.2342 94.5605 36.9404 95.0494 37.6224C95.1066 37.7021 95.1552 37.8042 95.2627 37.6675C95.6633 37.1516 96.043 36.6237 96.1852 35.9676C96.2909 35.4778 96.1783 35.2303 95.7326 34.9915C95.6476 34.9465 95.6356 34.8807 95.6459 34.801C95.6598 34.6972 95.7431 34.6972 95.8193 34.6972C96.2078 34.6972 96.5961 34.6972 96.9846 34.6972L96.9811 34.6989ZM90.9955 37.6934C90.9955 38.8236 91.6752 39.5229 92.5716 39.5125C93.2028 39.5057 93.6779 39.1594 94.1408 38.7908C94.2259 38.7233 94.1842 38.661 94.1357 38.5952C93.5339 37.7834 92.9549 36.9578 92.5179 36.0438C92.4555 35.9123 92.3792 35.9175 92.2717 35.9885C92.0463 36.1373 91.8295 36.2966 91.6353 36.4852C91.2365 36.8729 90.999 37.3317 90.9938 37.6934H90.9955ZM94.8033 33.0667C94.8067 32.4038 94.401 32.0161 93.749 32.0611C93.1924 32.0991 92.7572 32.686 92.8335 33.3004C92.8942 33.7919 93.0814 34.2455 93.2704 34.6972C93.3155 34.8062 93.3762 34.8253 93.4785 34.7716C93.8305 34.5882 94.1582 34.3718 94.4166 34.0671C94.6593 33.7799 94.8119 33.4527 94.8015 33.0667H94.8033Z" fill="#8D0010"/>
<path d="M126.94 40.1148C126.35 40.1148 125.761 40.1148 125.174 40.1148C125.057 40.1148 124.929 40.1357 124.923 39.9521C124.918 39.7791 125.027 39.7705 125.154 39.7618C125.256 39.7548 125.361 39.7376 125.461 39.7116C125.865 39.6078 126.016 39.3637 125.929 38.9569C125.821 38.4515 125.584 37.9963 125.392 37.522C125.304 37.3039 125.206 37.0893 125.117 36.8712C125.077 36.7708 125.02 36.7172 124.902 36.7172C123.702 36.7206 122.504 36.7189 121.304 36.7172C121.209 36.7172 121.151 36.7483 121.112 36.8383C120.859 37.4372 120.587 38.0275 120.353 38.635C120.079 39.3446 120.243 39.6043 120.996 39.7358C121.077 39.7496 121.161 39.7618 121.242 39.767C121.369 39.7739 121.406 39.8432 121.404 39.9591C121.402 40.0768 121.338 40.1166 121.232 40.1166C120.261 40.1166 119.292 40.1166 118.321 40.1166C118.219 40.1166 118.144 40.0906 118.14 39.9695C118.137 39.8604 118.157 39.7722 118.286 39.7618C118.915 39.7047 119.231 39.2754 119.482 38.7648C119.992 37.7193 120.42 36.6392 120.88 35.573C121.69 33.7002 122.489 31.8239 123.297 29.9511C123.333 29.8663 123.345 29.752 123.46 29.7278C123.61 29.695 123.715 29.733 123.782 29.8992C124.134 30.756 124.497 31.6093 124.855 32.4626C125.696 34.4567 126.536 36.4523 127.378 38.4463C127.478 38.6817 127.605 38.905 127.739 39.1231C127.974 39.5056 128.324 39.703 128.757 39.7618C128.885 39.779 128.986 39.7895 128.979 39.9608C128.97 40.1495 128.837 40.1183 128.726 40.1183C128.129 40.12 127.533 40.1183 126.938 40.1183L126.94 40.1148ZM123.108 36.1131C123.607 36.1131 124.105 36.1113 124.605 36.1131C124.75 36.1131 124.81 36.0837 124.743 35.9227C124.236 34.7335 123.737 33.541 123.235 32.3502C123.213 32.3017 123.208 32.2272 123.145 32.2237C123.075 32.2203 123.07 32.2965 123.049 32.3432C122.532 33.5358 122.017 34.7301 121.499 35.921C121.431 36.0767 121.48 36.1148 121.633 36.1131C122.125 36.1096 122.616 36.1131 123.108 36.1131Z" fill="#8D0010"/>
<path d="M62.2637 36.4402C62.3017 35.6076 62.6555 34.5985 63.5017 33.8231C64.8975 32.5422 67.3181 32.7707 68.4191 34.6054C69.4265 36.2827 68.8404 38.5675 67.5938 39.6043C66.3384 40.648 64.0131 40.7155 62.8566 38.8219C62.4526 38.1607 62.2637 37.515 62.2637 36.4402ZM67.4776 37.2727C67.4724 36.7968 67.4724 36.4713 67.4256 36.1494C67.3163 35.4051 67.091 34.7093 66.5932 34.1259C66.0766 33.5202 65.2529 33.3835 64.5871 33.7988C64.1466 34.0741 63.9472 34.5155 63.8311 34.9949C63.649 35.7461 63.6785 36.5008 63.8137 37.2554C63.9265 37.8889 64.1449 38.4843 64.5247 39.0071C64.9131 39.542 65.4402 39.8171 66.106 39.7047C66.7632 39.5939 67.1342 39.1473 67.3181 38.5329C67.4568 38.0707 67.4845 37.5964 67.4758 37.2693L67.4776 37.2727Z" fill="#8D0010"/>
<path d="M77.7191 35.8447C77.0255 35.8447 76.332 35.8447 75.6402 35.8447C75.3697 35.8447 75.3782 35.8447 75.3835 36.106C75.3922 36.5613 75.4737 37.0009 75.6418 37.4215C75.8794 38.0117 76.2678 38.479 76.8313 38.7872C77.8613 39.3479 79.0074 39.0105 79.5709 37.9858C79.6368 37.8646 79.6837 37.7331 79.7513 37.6119C79.7877 37.5461 79.7773 37.4042 79.9195 37.4596C80.0356 37.5063 80.1276 37.5807 80.0877 37.7279C80.0373 37.9148 79.9993 38.107 79.9247 38.2835C79.5986 39.0728 79.1271 39.7478 78.3191 40.1061C77.107 40.6444 75.6731 40.1806 74.8668 39.0174C74.4836 38.467 74.3102 37.8438 74.2599 37.1878C74.1993 36.3934 74.2703 35.611 74.5928 34.8701C75.2708 33.3124 76.918 32.6944 78.3624 33.1514C79.3663 33.4699 80.0981 34.4444 80.0981 35.6543C80.0981 35.8222 80.0166 35.8447 79.8796 35.8447C79.1583 35.8412 78.4387 35.8447 77.7174 35.8447H77.7191ZM76.9302 35.3618C77.3117 35.3618 77.6913 35.3618 78.0728 35.3618C78.3538 35.3618 78.478 35.2221 78.4456 34.9429C78.3364 34.0186 77.5283 33.4248 76.6614 33.6465C75.9834 33.8213 75.5049 34.4254 75.3939 35.1887C75.3731 35.334 75.4528 35.3635 75.5777 35.3618C76.0285 35.3583 76.4776 35.3618 76.9284 35.3618H76.9302Z" fill="#8D0010"/>
<path d="M83.3811 34.2749C83.3811 35.6649 83.3811 37.0565 83.3811 38.4464C83.3811 38.6818 83.3898 38.9154 83.421 39.1491C83.4678 39.5005 83.6707 39.7151 84.0227 39.7584C84.125 39.7705 84.2307 39.7705 84.3348 39.774C84.4423 39.7775 84.5012 39.8207 84.5012 39.9367C84.5012 40.0596 84.4492 40.1133 84.3278 40.1133C83.3014 40.1133 82.2766 40.1133 81.2501 40.1133C81.1322 40.1133 81.0715 40.07 81.0715 39.9419C81.0715 39.8121 81.1391 39.774 81.2536 39.7723C81.4997 39.7688 81.7425 39.7584 81.9055 39.5299C82.0235 39.3655 82.0547 39.1751 82.0686 38.9812C82.0789 38.8359 82.0806 38.6904 82.0806 38.545C82.0772 36.1443 82.0754 33.7436 82.0686 31.3446C82.0686 31.194 82.0494 31.04 82.0235 30.8911C81.9645 30.5605 81.7737 30.4341 81.4408 30.4964C81.3732 30.5086 81.3038 30.5241 81.2414 30.5518C81.0958 30.6158 81.0438 30.5311 80.9953 30.4185C80.9432 30.2956 81.0213 30.2593 81.1096 30.2229C81.72 29.9755 82.3286 29.7262 82.939 29.4786C82.9962 29.4562 83.0586 29.444 83.121 29.4389C83.3499 29.4215 83.3863 29.4562 83.3863 29.6864C83.3863 31.2148 83.3863 32.7431 83.3863 34.2732L83.3811 34.2749Z" fill="#8D0010"/>
<path d="M71.9414 36.2083C71.9414 36.8799 71.9432 37.5498 71.9414 38.2214C71.9414 38.3962 71.9588 38.5676 71.9918 38.7372C72.0854 39.234 72.5136 39.44 72.9645 39.208C73.1153 39.1301 73.235 39.0176 73.3269 38.874C73.3563 38.8272 73.3788 38.7736 73.4187 38.7372C73.4985 38.6628 73.6078 38.6662 73.6927 38.7078C73.7898 38.7562 73.7187 38.8445 73.6927 38.9069C73.3928 39.6027 72.9263 40.1029 72.134 40.2153C71.5426 40.3002 70.9219 39.8934 70.7589 39.3135C70.6584 38.957 70.6462 38.5901 70.6445 38.2249C70.6375 36.8488 70.641 35.4727 70.641 34.0949C70.641 33.8059 70.641 33.8059 70.3549 33.8059C70.1607 33.8059 69.9665 33.8059 69.7723 33.8059C69.6822 33.8059 69.5833 33.8146 69.5659 33.6882C69.5504 33.5809 69.5868 33.5065 69.6909 33.4546C70.3168 33.1412 70.778 32.6531 71.1508 32.0733C71.3345 31.7876 71.4612 31.4709 71.5912 31.1576C71.6362 31.0503 71.6831 30.9516 71.827 30.9742C71.9831 31.0001 71.9414 31.1265 71.9414 31.2217C71.9449 31.7963 71.9414 32.3693 71.9432 32.9439C71.9432 33.2157 71.9432 33.2157 72.2241 33.2157C72.5917 33.2157 72.9593 33.2243 73.3269 33.214C73.58 33.207 73.5523 33.3714 73.5575 33.5341C73.5627 33.6951 73.5505 33.818 73.3304 33.8111C72.935 33.7989 72.5397 33.8111 72.1443 33.8059C71.99 33.8024 71.9397 33.8595 71.9397 34.0119C71.9449 34.7458 71.9414 35.4779 71.9414 36.2118V36.2083Z" fill="#8D0010"/>
<path d="M3.60449 23.7199C3.6253 20.1335 4.4732 16.3775 6.27129 12.8482C7.22496 10.9754 8.41617 9.26533 9.85534 7.7282C11.5841 5.88317 13.5746 4.39455 15.8652 3.31619C17.6408 2.48017 19.503 1.94533 21.4554 1.73076C22.3103 1.63721 23.1685 1.5888 24.0268 1.62516C27.9612 1.79305 31.4776 3.11367 34.564 5.53695C38.7237 8.8031 41.2639 13.1009 42.5244 18.1898C42.866 19.5676 43.0672 20.9678 43.1592 22.3836C43.4574 26.9636 42.6112 31.315 40.5235 35.4103C39.3756 37.6605 37.888 39.6683 36.043 41.4009C33.6346 43.6615 30.8516 45.2591 27.63 46.0605C26.4439 46.3547 25.2406 46.5174 24.0165 46.5572C19.933 46.6888 16.2536 45.5048 12.94 43.1612C10.1258 41.1707 7.98269 38.5952 6.384 35.5575C5.0714 33.0597 4.24259 30.4064 3.85245 27.6144C3.68772 26.4426 3.60796 25.2656 3.60622 23.7182L3.60449 23.7199ZM4.12814 24.099C4.12814 24.5005 4.14549 24.9004 4.16282 25.3019C4.20097 26.2072 4.29287 27.1072 4.43505 28.0021C4.75929 30.0463 5.32803 32.0212 6.16899 33.9166C7.56654 37.0668 9.53629 39.7964 12.2291 41.9704C15.8964 44.9285 20.07 46.3513 24.8088 45.9965C26.0364 45.9046 27.2381 45.6727 28.4119 45.3092C31.6545 44.3036 34.3836 42.4965 36.6794 40.0162C38.833 37.6899 40.3813 35.0035 41.4009 32.0126C42.339 29.257 42.7603 26.4219 42.684 23.5122C42.6563 22.4391 42.5748 21.3729 42.4101 20.3135C41.9869 17.5977 41.1512 15.0188 39.83 12.6024C37.9746 9.20813 35.4517 6.44221 32.0775 4.49668C29.1437 2.80565 25.9827 2.00936 22.5859 2.17042C20.9266 2.24997 19.3157 2.56157 17.7518 3.11367C14.941 4.1038 12.5343 5.717 10.4675 7.84769C9.06466 9.29474 7.89772 10.9113 6.94926 12.6855C5.04193 16.2529 4.14894 20.0729 4.1264 24.1042L4.12814 24.099Z" fill="#8D0010"/>
<path d="M12.2606 31.5851C12.5917 31.9141 12.968 32.1166 13.3755 32.2429C14.9517 32.7345 16.3197 32.3398 17.5318 31.2632C18.6084 30.3078 19.4147 29.1463 20.1204 27.9087C21.3672 25.7244 22.3052 23.405 23.1549 21.0458C23.8103 19.2267 24.646 17.5009 25.7904 15.9345C26.5465 14.9011 27.4551 14.0288 28.5665 13.3763C28.6081 13.352 28.6463 13.326 28.7295 13.2759C28.211 13.1668 27.7429 13.0214 27.2557 12.973C26.7459 12.9227 26.2344 12.876 25.7228 12.8535C25.1471 12.8293 24.5733 12.8778 24.0011 12.9331C22.7058 13.0595 21.4418 13.3347 20.2367 13.8384C18.1681 14.7038 16.4757 16.0331 15.2567 17.9268C14.4869 19.1228 14.1661 20.4434 14.2824 21.8628C14.3136 22.2367 14.4141 22.5967 14.5754 22.9377C14.943 23.7131 15.6036 24.0402 16.4116 24.151C17.7502 24.3345 18.7784 23.7477 19.6141 22.7922C20.9771 21.2345 21.7469 19.398 22.0399 17.3556C22.0833 17.0544 22.1163 16.7532 22.118 16.4468C22.118 16.3153 22.1544 16.1923 22.2273 16.0279C22.3676 16.317 22.4318 16.5819 22.4821 16.8501C22.8098 18.5845 22.6763 20.26 21.8631 21.8576C21.1313 23.2959 19.9627 24.151 18.4057 24.4989C17.6323 24.672 16.8433 24.7811 16.0579 24.589C14.6135 24.2341 13.8852 23.2855 13.7586 21.8438C13.5697 19.6923 14.3933 17.899 15.7995 16.3308C17.6201 14.3023 19.9297 13.1651 22.5792 12.6562C23.9819 12.3861 25.4003 12.3083 26.8204 12.3741C27.7377 12.4173 28.6567 12.5194 29.5531 12.7461C29.6814 12.779 29.7942 12.767 29.9155 12.7219C30.4999 12.5056 31.0928 12.3533 31.724 12.4848C31.75 12.49 31.7743 12.4987 31.854 12.5229C31.3182 12.6043 30.8363 12.677 30.3819 12.973C30.5605 13.0422 30.7027 13.0924 30.8397 13.1529C32.102 13.7172 33.1285 14.5429 33.5776 15.8895C34.0787 17.3902 33.8117 18.8268 33.0089 20.1683C32.4349 21.1271 31.5455 21.7399 30.583 22.2574C30.3143 22.4011 30.0369 22.5274 29.7612 22.6572C29.6762 22.6971 29.6347 22.7247 29.7109 22.8199C30.1808 23.4154 30.29 24.125 30.3317 24.8486C30.3854 25.7659 30.2242 26.6452 29.8825 27.5037C29.5132 28.4333 29.2826 29.4043 29.2306 30.4047C29.2098 30.8305 29.2601 31.2615 29.4352 31.6648C29.6988 32.2741 30.3091 32.5043 30.9177 32.2221C31.4934 31.9555 31.9528 31.5315 32.402 31.0988C33.0141 30.5086 33.4579 29.7833 33.9591 29.1048C34.1273 28.8763 34.2798 28.6358 34.4532 28.4124C34.5278 28.3172 34.5833 28.1407 34.774 28.248C34.9734 28.3605 34.8468 28.5025 34.8 28.6254C34.7653 28.7205 34.696 28.8037 34.6353 28.8884C34.07 29.6846 33.5255 30.4964 32.8874 31.2355C32.102 32.146 31.1448 32.8054 29.9155 32.9491C29.1127 33.0426 28.3186 32.9595 27.5834 32.5925C26.6973 32.1512 26.3297 31.3758 26.2795 30.4307C26.2326 29.5548 26.4078 28.7205 26.7355 27.9019C27.2001 26.7421 27.7411 25.6258 28.4 24.5647C28.648 24.1648 28.7746 23.7201 28.8474 23.2578C28.8751 23.0831 28.8092 23.045 28.655 23.1021C28.133 23.2977 27.5972 23.3011 27.0562 23.2197C26.9176 23.199 26.7874 23.1522 26.6696 23.0744C26.3713 22.8754 26.3661 22.5257 26.6591 22.3162C26.8568 22.1761 27.0891 22.1224 27.3216 22.0895C27.9545 21.9978 28.5821 21.9822 29.1508 22.3475C29.2896 22.4357 29.4057 22.4011 29.5323 22.3146C30.316 21.7745 30.7824 21.0163 31.0529 20.1232C31.2697 19.4049 31.3564 18.6659 31.4067 17.9181C31.457 17.1634 31.3824 16.4277 31.1778 15.7043C30.9524 14.9133 30.5016 14.2746 29.8566 13.7639C29.7196 13.6549 29.6467 13.6705 29.5444 13.8055C28.9098 14.6328 28.381 15.526 27.8954 16.4434C27.1949 17.7692 26.725 19.1886 26.2534 20.6062C25.7679 22.0618 25.3882 23.5522 24.8351 24.9871C24.1414 26.7872 23.252 28.473 21.9688 29.9374C20.5956 31.5038 18.8772 32.4472 16.8313 32.8072C16.0579 32.9439 15.2776 33.008 14.4938 32.9733C13.3529 32.9214 12.3542 32.525 11.5704 31.6769C10.8005 30.8427 10.5734 29.3454 11.2983 28.3311C11.7178 27.7426 12.4565 27.4397 13.157 27.5955C13.854 27.7512 14.4107 28.3432 14.525 29.0511C14.7176 30.2471 13.8922 31.3497 12.675 31.5211C12.5466 31.5384 12.4183 31.5574 12.2553 31.5818L12.2606 31.5851ZM27.866 22.3907C27.6059 22.415 27.3423 22.4132 27.0926 22.5102C27.0025 22.5448 26.8967 22.5897 26.9002 22.7023C26.9037 22.8199 27.0199 22.8407 27.1117 22.8667C27.6441 23.0207 28.1504 22.9169 28.6463 22.7109C28.6827 22.6953 28.7329 22.6884 28.7329 22.6365C28.7329 22.5897 28.6879 22.5707 28.6532 22.5499C28.407 22.415 28.1365 22.415 27.866 22.3889V22.3907Z" fill="#8D0010"/>
</svg>
