<svg width="58" height="11" viewBox="0 0 58 11" fill="none" xmlns="http://www.w3.org/2000/svg">
<path fill-rule="evenodd" clip-rule="evenodd" d="M38.6658 4.98665C39.3161 4.98665 39.6465 4.68185 39.6465 4.07785V2.80175C39.6465 2.18235 39.3219 1.87655 38.6658 1.87655H32.5861V4.98675L38.6658 4.98665ZM42.4805 10.4593C42.7269 10.6626 42.6168 10.9906 42.3095 10.9906H40.1286C39.9296 10.9906 39.775 10.9339 39.6532 10.8313L34.9292 6.83435L34.9147 6.82855H32.5831V10.6424C32.5831 10.8351 32.4256 10.9906 32.2324 10.9906H30.5733C30.3791 10.9906 30.2216 10.8351 30.2216 10.6424V0.41745C30.2216 0.18825 30.41 0.00225 30.6409 0.00225H39.6252C41.2882 0.00225 42.0389 0.66285 42.0389 2.12685L42.037 4.70485C42.037 6.16885 41.2911 6.82855 39.6368 6.82855L39.6378 6.82755L38.1787 6.82855L42.4805 10.4593ZM10.0065 7.35875C10.0065 6.74035 9.6828 6.43455 9.0257 6.43455H2.3596V9.11505H9.0258C9.6781 9.11505 10.0066 8.80825 10.0066 8.20425L10.0065 7.35875ZM2.3595 4.55805H8.9697C9.621 4.55805 9.9514 4.25225 9.9514 3.64825V2.80355C9.9514 2.18415 9.6258 1.87735 8.9697 1.87735H2.3595V4.55805ZM12.427 7.22155V8.83805C12.427 10.2406 11.4472 10.9904 9.6132 10.9904H0.4039C0.1807 10.9904 4.14852e-08 10.8111 4.14852e-08 10.5896V0.40305C-9.99585e-05 0.18155 0.1806 0.00225 0.4038 0.00225H9.9408C11.595 0.00225 12.341 0.66285 12.341 2.12685L12.34 3.67615C12.34 4.58605 11.6501 5.33385 10.7611 5.43645L10.7457 5.44505L10.7544 5.45465C11.6878 5.51315 12.427 6.28105 12.427 7.22155ZM25.2956 0.00225H25.2985C25.2125 -0.00075 17.3819 -0.00075 17.3008 0.00225H17.3037C15.6494 0.00225 14.9044 0.66275 14.9044 2.12675V4.43835H17.4196V1.91205H25.1729V4.43835H27.689V3.54095L27.6948 2.12675C27.6948 0.66275 26.9498 0.00225 25.2956 0.00225ZM25.1738 6.55245V9.08065H17.4205V6.55245H14.9044L14.9005 8.86495C14.9005 10.3299 15.6465 10.9904 17.3007 10.9904H17.2978C17.3838 10.9933 25.2144 10.9933 25.2946 10.9904H25.2927C26.9469 10.9904 27.6919 10.3299 27.6919 8.86495L27.689 6.55245H25.1738ZM57.2189 10.4507C57.4731 10.63 57.3735 10.9906 57.0701 10.9906H54.5028C54.3642 10.9909 54.2288 10.9483 54.1153 10.8687L46.9495 5.86505V10.6424C46.9495 10.8351 46.793 10.9906 46.5988 10.9906H44.9329C44.8871 10.9907 44.8417 10.9818 44.7993 10.9644C44.7569 10.947 44.7183 10.9213 44.6859 10.889C44.6534 10.8567 44.6276 10.8183 44.61 10.776C44.5924 10.7336 44.5833 10.6883 44.5832 10.6424V0.35025C44.5832 0.15755 44.7397 0.00225 44.9329 0.00225H46.5988C46.793 0.00225 46.9495 0.15755 46.9495 0.35025V4.66845L53.7423 0.11635C53.8525 0.04155 53.9849 0.00225 54.1366 0.00225H56.6914C56.9986 0.00225 57.0895 0.36655 56.8334 0.53335L49.7179 5.18135L57.2189 10.4507Z" fill="white"/>
</svg>
