<svg width="49" height="49" viewBox="0 0 49 49" fill="none" xmlns="http://www.w3.org/2000/svg">
<mask id="mask0_78_503" style="mask-type:alpha" maskUnits="userSpaceOnUse" x="0" y="0" width="49" height="49">
<rect x="0.917969" y="0.849609" width="48" height="48" fill="#D9D9D9"/>
</mask>
<g mask="url(#mask0_78_503)">
<path d="M24.918 41.4994C24.4513 41.4994 23.9763 41.4161 23.493 41.2494C23.0096 41.0827 22.5846 40.8161 22.218 40.4494L18.768 37.2994C15.2346 34.0661 12.043 30.8577 9.19297 27.6744C6.34297 24.4911 4.91797 20.9827 4.91797 17.1494C4.91797 14.0161 5.96797 11.3994 8.06797 9.29941C10.168 7.19941 12.7846 6.14941 15.918 6.14941C17.6846 6.14941 19.3513 6.52441 20.918 7.27441C22.4846 8.02441 23.818 9.04941 24.918 10.3494C26.018 9.04941 27.3513 8.02441 28.918 7.27441C30.4846 6.52441 32.1513 6.14941 33.918 6.14941C37.0513 6.14941 39.668 7.19941 41.768 9.29941C43.868 11.3994 44.918 14.0161 44.918 17.1494C44.918 20.9827 43.5013 24.4994 40.668 27.6994C37.8346 30.8994 34.618 34.1161 31.018 37.3494L27.618 40.4494C27.2513 40.8161 26.8263 41.0827 26.343 41.2494C25.8596 41.4161 25.3846 41.4994 24.918 41.4994Z" fill="white"/>
</g>
</svg>
