<svg width="148" height="29" viewBox="0 0 148 29" fill="none" xmlns="http://www.w3.org/2000/svg">
<g clip-path="url(#clip0_5907_5635)">
<path d="M3.18359 28.8477L0 0.839844H6.875L8.10547 19.3164L9.86328 0.839844H17.0508L18.8281 19.4727L20.0781 0.839844H26.7383L23.5547 28.8477H14.9805L13.3398 10.2344L11.7969 28.8477H3.18359Z" fill="#122E1D"/>
<path d="M24.8333 28.8477L29.4231 0.839844H40.1067L44.9505 28.8477H37.4309L36.7473 23.1055H32.8606L32.2161 28.8477H24.8333ZM33.5052 17.5781H36.0638L34.7356 6.91406L33.5052 17.5781Z" fill="#122E1D"/>
<path d="M44.608 28.8477V7.24609H51.4048V28.8477H44.608ZM44.2955 3.26172C44.2955 1.32812 45.897 0 48.0064 0C50.1158 0 51.7173 1.32812 51.7173 3.26172C51.7173 5.15625 50.1158 6.50391 48.0064 6.50391C45.897 6.50391 44.2955 5.15625 44.2955 3.26172Z" fill="#122E1D"/>
<path d="M54.617 28.8477L51.4334 0.839844H58.3084L59.5389 19.3164L61.2967 0.839844H68.4842L70.2616 19.4727L71.5116 0.839844H78.1717L74.9881 28.8477H66.4139L64.7733 10.2344L63.2303 28.8477H54.617Z" fill="#122E1D"/>
<path d="M76.2667 28.8477L80.8566 0.839844H91.5402L96.3839 28.8477H88.8644L88.1808 23.1055H84.2941L83.6495 28.8477H76.2667ZM84.9386 17.5781H87.4972L86.1691 6.91406L84.9386 17.5781Z" fill="#122E1D"/>
<path d="M96.0414 28.8477V7.24609H102.838V28.8477H96.0414ZM95.7289 3.26172C95.7289 1.32812 97.3305 0 99.4398 0C101.549 0 103.151 1.32812 103.151 3.26172C103.151 5.15625 101.549 6.50391 99.4398 6.50391C97.3305 6.50391 95.7289 5.15625 95.7289 3.26172Z" fill="#122E1D"/>
<path d="M103.707 28.8477V0.839844H112.691C118.472 0.839844 121.832 3.61328 121.832 9.35547V20.2539C121.832 26.0547 118.57 28.8477 112.164 28.8477H103.707ZM110.914 23.1445H111.461C113.355 23.1445 114.293 22.4023 114.293 20.1367V9.375C114.293 7.22656 113.316 6.54297 111.461 6.54297H110.914V23.1445Z" fill="#122E1D"/>
<path d="M122.388 28.8477V7.24609H129.185V28.8477H122.388ZM122.075 3.26172C122.075 1.32812 123.677 0 125.786 0C127.895 0 129.497 1.32812 129.497 3.26172C129.497 5.15625 127.895 6.50391 125.786 6.50391C123.677 6.50391 122.075 5.15625 122.075 3.26172Z" fill="#122E1D"/>
<path d="M134.428 20.6055C134.428 19.3359 133.92 18.7305 132.24 18.7305L128.901 0.839844H136.283L138.08 13.5742L139.838 0.839844H147.143L143.842 18.7305C142.026 18.7305 141.655 19.3359 141.655 20.6055V28.8477H134.428V20.6055Z" fill="#122E1D"/>
</g>
<defs>
<clipPath id="clip0_5907_5635">
<rect width="147.143" height="28.8477" fill="white"/>
</clipPath>
</defs>
</svg>
