<svg width="409" height="75" viewBox="0 0 409 75" fill="none" xmlns="http://www.w3.org/2000/svg">
<g clip-path="url(#clip0_76_446)">
<path d="M371.3 11.6999H370.9C365.2 11.6999 346.5 13.4999 346.4 36.8999C346.4 61.2999 366.9 62.4999 371 62.4999H371.2C373.8 62.4999 382.7 61.9999 389.1 55.6999C393.6 51.2999 395.8 44.8999 395.8 36.8999C395.7 13.4999 377 11.6999 371.3 11.6999ZM378.6 52.5999C377.2 53.7999 374.9 55.1999 371.4 55.1999H370.7C367.2 55.1999 364.9 53.7999 363.5 52.5999C360 49.4999 358.2 43.8999 358.2 35.9999C358.3 20.4999 366 18.1999 370.6 18.1999H371.3C375.9 18.1999 383.6 20.4999 383.7 35.9999C383.9 43.8999 382.1 49.4999 378.6 52.5999ZM75.8 70.0999C71.3 68.3999 64.7 63.4999 60.8 58.8999C56 53.3999 44.4 37.9999 44.3 37.8999L39 30.8999C33.9 23.8999 28.1 16.0999 22.3 11.3999V62.3999H29.3V35.9999L29.4 36.1999C31.3 38.5999 33.3 41.1999 35.3 43.7999C38.6 47.9999 41.9 52.3999 44.7 55.5999C46.6 57.7999 51.6 63.0999 53 64.2999C59.4 70.3999 69.8 74.2999 80.1 74.2999C84.6 74.2999 88.9 73.5999 92.9 72.2999V71.9999C91.3 72.2999 89.5 72.4999 87.7 72.4999C83.8 72.2999 79.7 71.5999 75.8 70.0999Z" fill="white"/>
<path d="M31.7 15.4C36.5 20.8 48.5 36.2 48.7 36.4L54 43.4C59.1 50.4 64.9 58.2 70.6 62.9V11.7H63.7V38.2L63.5 38C61.6 35.6 59.6 33 57.6 30.4C54.3 26.2 51 21.8 48.2 18.6C46.3 16.4 40.9 11.1 39.5 9.9C33.1 3.8 22.7 0 12.4 0C7.9 0 4 0.7 0 2.1V2.4C1.6 2 3.4 1.9 5.3 1.9C9.2 1.9 13 2.7 16.8 4.2C21.3 5.8 27.9 10.7 31.7 15.4ZM302.1 37.7C296.4 32.8 290.1 31.6 285.3 28.3C282 25.6 282.1 22 283.9 20.2C288 15.7 296.2 17.5 298.3 18C300.8 18.6 302.1 19.3 304.4 20.4V14.7C294.4 11.7 278.4 8.9 272.2 19.1C269.9 23.3 269.3 30.9 276 35.4C282.7 40.7 294.3 43.2 295.6 47.6C296.5 50 295.5 52.3 293.9 53.9C288 59.5 277.8 56.1 271.7 53.3V59.4C278.4 62.4 286.8 63.2 294.3 61.6C299.4 60.3 305.2 55.8 306 50.1C306.9 44.4 305.8 40.8 302.1 37.7ZM339.1 37.7C333.4 32.8 327.1 31.6 322.3 28.3C319 25.6 319.1 22 320.9 20.2C325 15.7 333.2 17.5 335.3 18C337.8 18.6 339.1 19.3 341.4 20.4V14.7C331.4 11.7 315.4 8.9 309.2 19.1C306.9 23.3 306.3 30.9 313 35.4C319.7 40.7 331.3 43.2 332.6 47.6C333.5 50 332.5 52.3 330.9 53.9C324.9 59.5 314.8 56.1 308.7 53.3V59.4C315.4 62.4 323.8 63.2 331.3 61.6C336.4 60.3 342.2 55.8 343.1 50.1C343.8 44.4 342.7 40.8 339.1 37.7ZM235.8 61.1H267.9V55.3H246.9V39.3H263.7V33.7H246.9V18.9H267.9V13.1H235.8V61.1ZM143.6 37.7C137.9 32.8 131.6 31.6 126.8 28.3C123.5 25.6 123.6 22 125.4 20.2C129.5 15.7 137.7 17.5 139.8 18C142.3 18.6 143.6 19.3 145.9 20.4V14.7C135.9 11.7 119.9 8.9 113.7 19.1C111.4 23.3 110.8 30.9 117.5 35.4C124.2 40.7 135.8 43.2 137.1 47.6C138 50 137 52.3 135.4 53.9C129.5 59.5 119.3 56.1 113.2 53.3V59.4C119.9 62.4 128.3 63.2 135.8 61.6C140.9 60.3 146.7 55.8 147.6 50.1C148.3 44.4 147.2 40.8 143.6 37.7ZM77.4 61.1H109.6V55.3H88.5V39.3H105.3V33.7H88.5V18.9H109.6V13.1H77.4V61.1ZM173.6 12.6H152.5V61.7H163.7V58.7L163.5 43.7C163.5 43.7 180.3 44.8 185.4 38C189.1 33.7 189.4 27 187.8 21.6C185.7 15.5 179.8 12.7 173.6 12.6ZM176 34.7C173 38 167.9 37.5 163.5 37.2V18.9C163.5 18.9 172.5 16.9 176.3 21.9C178.4 24.6 178.5 31.3 176 34.7ZM225 37.9C228.6 33.7 228.9 27.1 227.4 21.8C225.4 15.9 219.6 13.1 213.5 13H192.8V61.1H203.8L203.7 43.4C203.7 43.4 205.7 43.6 209 43.4L219.6 61.2H231.7L219.5 41.4C221.5 40.6 223.8 39.5 225 37.9ZM216.1 34.7C213.1 37.9 208.1 37.5 203.9 37.2V19.2C203.9 19.2 212.7 17.2 216.4 22.1C218.5 24.8 218.6 31.4 216.1 34.7ZM402 50.4C398.5 50.4 395.7 53.1 395.7 56.5C395.7 59.9 398.5 62.6 402 62.6C405.3 62.6 408.1 60 408.1 56.5C408.1 53.1 405.3 50.4 402 50.4ZM402 61.9C398.9 61.9 396.3 59.6 396.3 56.5C396.3 53.5 398.8 51.1 402 51.1C405 51.1 407.5 53.6 407.5 56.5C407.5 59.6 405 61.9 402 61.9Z" fill="white"/>
<path d="M403.7 56.4999C403.9 56.2999 404.8 55.9999 404.8 54.7999C404.8 53.5999 404 52.8999 402.6 52.8999H399.3V59.6999H400.4V56.9999H402.3C403.4 56.9999 403.7 57.4999 403.7 58.6999C403.7 59.1999 403.7 59.4999 403.9 59.7999H405.2C404.9 59.4999 404.9 58.6999 404.9 57.8999C404.8 56.7999 404.2 56.4999 403.7 56.4999ZM402.5 55.9999H400.5V53.7999H402.5C403.1 53.7999 403.8 53.8999 403.8 54.8999C403.7 55.5999 403.3 55.9999 402.5 55.9999Z" fill="white"/>
</g>
<defs>
<clipPath id="clip0_76_446">
<rect width="408.1" height="74.2" fill="white"/>
</clipPath>
</defs>
</svg>
